<?xml version="1.0" encoding="UTF-8"?>
<svg width="349px" height="45px" viewBox="0 0 349 45" version="1.1" xmlns="http://www.w3.org/2000/svg" xmlns:xlink="http://www.w3.org/1999/xlink">
    <!-- Generator: Sketch 42 (36781) - http://www.bohemiancoding.com/sketch -->
    <title>logo</title>
    <desc>Created with Sketch.</desc>
    <defs></defs>
    <g id="Page-1" stroke="none" stroke-width="1" fill="none" fill-rule="evenodd">
        <g id="iPhone-7" transform="translate(-181.000000, -241.000000)">
            <g id="logo" transform="translate(181.000000, 241.000000)">
                <path d="M112.403,43.632 L112.454,19.05 L105.314,19.05 C105.161,27.822 103.886,37.206 98.99,43.224 C98.582,43.734 98.123,43.938 97.664,43.938 C96.899,43.938 96.236,43.377 96.236,42.714 C96.236,42.408 96.338,42.153 96.593,41.847 C101.744,35.676 102.764,26.955 102.764,18.897 C102.764,16.296 102.662,13.797 102.56,11.451 L102.56,10.992 C102.56,7.779 104.141,6.504 107.048,5.739 C110.312,4.872 113.627,3.852 116.636,2.577 C116.84,2.475 117.044,2.475 117.197,2.475 C117.962,2.475 118.574,3.138 118.574,3.852 C118.574,4.311 118.268,4.821 117.605,5.076 C114.8,6.147 110.924,7.32 108.119,8.034 C105.875,8.595 105.212,9.564 105.212,11.298 L105.212,11.706 C105.263,13.287 105.314,14.97 105.314,16.653 L121.532,16.653 C122.348,16.653 122.756,17.265 122.756,17.877 C122.756,18.489 122.348,19.101 121.532,19.101 L115.055,19.101 L115.106,43.632 C115.106,44.499 114.443,44.958 113.78,44.958 C113.066,44.958 112.403,44.499 112.403,43.632 Z M87.974,43.734 L88.025,31.239 C84.608,35.88 79.763,40.521 78.386,40.521 C77.621,40.521 77.06,39.96 77.06,39.297 C77.06,38.94 77.264,38.481 77.774,38.175 C80.936,36.135 84.914,32.31 87.719,28.179 L79.763,28.332 C78.998,28.332 78.59,27.771 78.59,27.21 C78.59,26.649 78.998,26.037 79.814,26.037 L88.025,26.037 L87.974,21.957 C87.974,21.192 88.586,20.784 89.198,20.784 C89.759,20.784 90.371,21.192 90.371,21.957 L90.371,26.037 L98.072,26.037 C98.837,26.037 99.194,26.598 99.194,27.159 C99.194,27.771 98.837,28.332 98.072,28.332 L90.32,28.179 L90.32,28.536 L90.422,43.734 C90.422,44.499 89.81,44.907 89.198,44.907 C88.586,44.907 87.974,44.499 87.974,43.734 Z M99.143,19.866 L79.151,19.866 C78.386,19.866 77.978,19.305 77.978,18.693 C77.978,18.132 78.386,17.571 79.151,17.571 L89.759,17.622 L90.014,17.622 C91.085,15.633 92.258,12.726 92.87,10.635 C93.074,9.972 93.533,9.717 94.043,9.717 C94.706,9.717 95.471,10.278 95.471,10.992 C95.471,11.757 93.533,15.735 92.462,17.622 L99.143,17.571 C99.908,17.571 100.316,18.132 100.316,18.693 C100.316,19.305 99.908,19.866 99.143,19.866 Z M97.715,8.391 L89.3,8.34 L80.426,8.391 C79.61,8.391 79.202,7.779 79.202,7.218 C79.202,6.606 79.61,6.045 80.426,6.045 L87.872,6.096 L87.821,1.965 C87.821,1.098 88.484,0.69 89.198,0.69 C89.861,0.69 90.524,1.098 90.524,1.965 L90.473,6.096 L97.715,6.045 C98.531,6.045 98.939,6.606 98.939,7.218 C98.939,7.779 98.531,8.391 97.715,8.391 Z M96.746,36.594 C96.491,36.594 96.236,36.492 95.981,36.237 C94.706,34.86 92.819,33.534 91.391,32.871 C91.034,32.667 90.881,32.412 90.881,32.106 C90.881,31.545 91.391,30.984 92.003,30.984 C92.564,30.984 97.97,33.483 97.97,35.217 C97.97,35.982 97.358,36.594 96.746,36.594 Z M87.464,15.48 C87.464,16.245 86.75,16.806 86.087,16.806 C85.679,16.806 85.271,16.551 85.067,16.041 C84.455,14.358 83.282,12.522 82.619,11.706 C82.466,11.502 82.364,11.298 82.364,11.094 C82.364,10.482 82.976,10.023 83.639,10.023 C85.118,10.023 87.464,14.562 87.464,15.48 Z M138.209,43.428 L138.26,22.365 L129.233,22.416 C128.417,22.416 128.009,21.804 128.009,21.141 C128.009,20.529 128.417,19.917 129.233,19.917 L138.26,19.968 L138.26,7.014 L130.814,7.065 C129.998,7.065 129.59,6.453 129.59,5.79 C129.59,5.178 129.998,4.566 130.814,4.566 L148.205,4.566 C149.072,4.566 149.531,5.178 149.531,5.841 C149.531,6.453 149.072,7.065 148.205,7.065 L140.963,7.014 L140.963,19.968 L149.99,19.917 C150.857,19.917 151.316,20.529 151.316,21.192 C151.316,21.804 150.857,22.416 149.99,22.416 L140.963,22.365 L141.014,43.428 C141.014,44.244 140.3,44.652 139.637,44.652 C138.923,44.652 138.209,44.244 138.209,43.428 Z M166.412,37.665 L166.361,3.903 C166.361,2.985 167.075,2.475 167.789,2.475 C168.503,2.475 169.166,2.934 169.166,3.852 L169.166,32.31 L169.268,37.92 L169.268,38.022 C169.268,41.031 167.585,43.938 162.281,43.938 C161.006,43.938 159.578,43.785 157.895,43.428 C156.977,43.224 156.569,42.561 156.569,41.949 C156.569,41.235 157.028,40.623 157.844,40.623 C157.946,40.623 158.099,40.623 158.252,40.674 C159.782,41.031 161.21,41.235 162.434,41.235 C164.831,41.235 166.412,40.368 166.412,37.665 Z M155.039,32.922 L155.039,6.657 C155.039,5.79 155.702,5.382 156.365,5.382 C157.079,5.382 157.742,5.79 157.742,6.657 L157.742,32.922 C157.742,33.687 157.079,34.095 156.416,34.095 C155.702,34.095 155.039,33.687 155.039,32.922 Z M196.511,21.651 L196.256,21.651 C196.256,28.842 196.358,36.951 196.46,41.949 C196.511,43.581 195.542,44.346 194.675,44.346 C193.91,44.346 193.196,43.734 193.196,42.561 L193.196,42.459 C193.349,37.155 193.451,28.689 193.451,21.294 C193.451,10.023 193.298,6.963 192.839,5.331 C192.788,5.178 192.788,5.025 192.788,4.923 C192.788,4.005 193.553,3.546 194.318,3.546 C195.491,3.546 196.358,3.801 196.358,8.85 L196.358,9.615 C196.307,11.859 196.256,15.276 196.256,19.152 C196.511,19.05 196.817,18.948 197.174,18.948 C199.418,18.948 210.23,21.906 210.23,24.813 C210.23,25.68 209.465,26.496 208.598,26.496 C208.241,26.496 207.833,26.394 207.476,26.037 C205.079,23.793 199.265,21.906 196.511,21.651 Z M238.89,25.221 C239.298,26.394 240.42,29.811 240.42,30.933 C240.42,31.902 239.757,32.463 239.094,32.463 C238.533,32.463 237.921,32.055 237.768,31.137 C236.544,24.813 235.626,23.64 233.79,22.059 C233.433,21.753 233.28,21.447 233.28,21.09 C233.28,20.478 233.892,19.866 234.708,19.866 C235.473,19.866 237.054,21.039 237.972,22.875 C241.899,22.314 244.245,21.906 244.245,21.906 C244.245,21.345 244.296,20.733 244.296,20.07 C244.296,17.571 244.041,16.806 243.735,16.194 C243.633,15.939 243.582,15.684 243.582,15.48 C243.582,14.613 244.347,14.001 245.163,14.001 C246.591,14.001 246.897,15.225 246.897,17.673 C246.897,18.948 246.795,20.223 246.795,21.498 C250.365,20.988 253.476,20.784 253.578,20.784 C255.21,20.784 256.23,21.804 256.23,23.181 C256.23,23.64 256.128,24.099 255.924,24.558 C252.354,32.31 248.529,38.583 238.941,42.867 C238.584,43.02 238.278,43.071 238.023,43.071 C237.156,43.071 236.595,42.459 236.595,41.796 C236.595,41.286 236.952,40.776 237.717,40.47 C249.447,35.88 253.17,23.793 253.17,23.64 C253.17,23.385 253.017,23.232 252.66,23.232 C251.64,23.232 243.327,24.405 238.89,25.221 Z M312.94,7.116 C312.634,7.116 312.328,7.014 312.124,6.657 C311.41,5.535 308.86,2.781 307.738,2.016 C307.33,1.71 307.126,1.404 307.126,1.149 C307.126,0.588 307.738,0.129 308.452,0.129 C309.574,0.129 314.317,4.26 314.317,5.688 C314.317,6.504 313.603,7.116 312.94,7.116 Z M307.024,9.513 C306.667,9.513 306.361,9.36 306.157,8.952 C305.596,7.779 303.097,5.025 302.026,4.209 C301.618,3.903 301.465,3.597 301.465,3.291 C301.465,2.781 302.026,2.322 302.689,2.322 C303.862,2.322 308.401,6.606 308.401,8.034 C308.401,8.85 307.687,9.513 307.024,9.513 Z M301.261,8.034 C301.261,8.697 300.7,9.411 299.476,9.462 C297.079,9.615 290.092,10.176 286.42,10.584 C284.329,10.839 282.595,11.043 280.861,11.043 C279.229,11.043 278.872,10.176 278.872,9.615 C278.872,8.238 280.096,8.238 282.238,8.238 C286.318,8.238 296.212,6.963 296.977,6.81 C297.793,6.657 298.66,6.555 299.476,6.555 C300.598,6.606 301.261,7.32 301.261,8.034 Z M290.653,19.866 L290.5,19.662 C286.675,20.019 282.952,20.478 280.657,20.733 C277.75,21.039 275.965,21.498 274.333,21.6 L274.231,21.6 C273.262,21.6 272.65,20.886 272.65,20.121 C272.65,19.458 273.16,18.744 274.384,18.642 C276.271,18.489 278.668,18.438 280.963,18.183 C284.278,17.826 302.23,16.041 304.831,16.041 C306.106,16.041 308.248,16.194 308.248,17.571 C308.248,18.132 307.738,18.999 306.463,18.999 L306.31,18.999 C304.525,18.897 303.403,18.846 302.179,18.846 C301.312,18.846 299.884,18.846 293.866,19.356 C294.376,20.121 294.58,21.141 294.58,22.161 C294.58,22.416 294.529,22.62 294.529,22.875 C293.101,36.951 278.974,43.632 276.679,43.632 C275.659,43.632 275.149,42.969 275.149,42.255 C275.149,41.592 275.557,40.929 276.373,40.674 C285.247,37.92 291.367,29.454 291.367,22.467 C291.367,21.6 291.214,20.733 290.653,19.866 Z M341.961,35.064 C341.961,37.41 341.961,39.705 342.012,41.694 C342.012,42.969 341.196,43.632 340.38,43.632 C339.666,43.632 338.952,43.02 338.952,41.745 C339.003,37.206 339.309,31.239 339.309,26.496 C339.309,23.589 339.207,21.498 339.003,20.325 C333.087,26.802 323.754,33.891 321.51,33.891 C320.541,33.891 319.929,33.177 319.929,32.463 C319.929,31.902 320.235,31.341 320.949,30.984 C332.781,25.17 343.236,12.471 345.123,6.249 C345.327,5.535 345.99,5.229 346.602,5.229 C347.418,5.229 348.234,5.739 348.234,6.759 C348.234,7.575 347.112,10.941 341.247,17.775 C342.114,18.642 342.165,20.682 342.165,21.702 C342.165,22.263 342.114,22.824 342.114,23.436 C342.012,26.139 341.961,30.678 341.961,35.064 Z" id="Combined-Shape" fill="#2C3644"></path>
                <g id="Group" transform="translate(0.000000, 2.000000)">
                    <path d="M26,4.35435537 C23.8340892,3.10304336 14.5839382,-1.54660192 0,0.670725547 L0,10.6924633 C13.7916028,6.94533564 23.3060363,12.5145974 23.3060363,12.5145974 L26,12.5145974 L28.6939637,12.5145974 C28.6939637,12.5145974 38.2083972,6.94533564 52,10.6924633 L52,0.670725547 C37.4160618,-1.54660192 28.1659108,3.10304336 26,4.35435537 L26,4.35435537 Z" id="Combined-Shape" fill="#D9D3C7"></path>
                    <rect id="Rectangle-3" fill="#2C3644" x="0" y="34" width="52" height="8"></rect>
                    <rect id="Rectangle-3-Copy" fill="#2C3644" x="0" y="18" width="52" height="7.99934396"></rect>
                </g>
            </g>
        </g>
    </g>
</svg>